<?xml version="1.0" encoding="UTF-8"?>
<!DOCTYPE svg PUBLIC "-//W3C//DTD SVG 1.1//EN" "http://www.w3.org/Graphics/SVG/1.1/DTD/svg11.dtd">
<svg xmlns="http://www.w3.org/2000/svg" version="1.1" width="512px" height="512px" style="shape-rendering:geometricPrecision; text-rendering:geometricPrecision; image-rendering:optimizeQuality; fill-rule:evenodd; clip-rule:evenodd" xmlns:xlink="http://www.w3.org/1999/xlink">
<g><path style="opacity:0.943" fill="#000000" d="M 182.5,-0.5 C 195.833,-0.5 209.167,-0.5 222.5,-0.5C 291.911,8.77471 344.411,43.4414 380,103.5C 415.449,173.617 413.449,242.617 374,310.5C 367.932,319.905 361.098,328.738 353.5,337C 406.757,389.756 459.424,442.923 511.5,496.5C 511.5,499.5 511.5,502.5 511.5,505.5C 509.833,507.833 507.833,509.833 505.5,511.5C 502.5,511.5 499.5,511.5 496.5,511.5C 442.923,459.424 389.756,406.757 337,353.5C 287.547,396.161 230.38,412.328 165.5,402C 88.439,384.933 36.2723,339.433 9,265.5C 4.5964,251.302 1.42973,236.968 -0.5,222.5C -0.5,209.167 -0.5,195.833 -0.5,182.5C 10.3185,104.513 51.3185,48.68 122.5,15C 141.916,7.01816 161.916,1.85149 182.5,-0.5 Z M 189.5,21.5 C 263.607,19.7935 320.107,50.1268 359,112.5C 384.107,157.923 389.44,205.589 375,255.5C 348.738,328.424 297.238,370.591 220.5,382C 157.078,386.649 104.578,365.149 63,317.5C 23.6403,267.702 12.307,212.036 29,150.5C 48.8333,89.3333 89.3333,48.8333 150.5,29C 163.435,25.4033 176.435,22.9033 189.5,21.5 Z"/></g>
</svg>
